<svg id="visual" viewBox="0 0 960 540" width="960" height="540" xmlns="http://www.w3.org/2000/svg" xmlns:xlink="http://www.w3.org/1999/xlink" version="1.1"><rect x="0" y="0" width="960" height="540" fill="#fffaf0"></rect><path d="M0 402L22.8 398.3C45.7 394.7 91.3 387.3 137 385C182.7 382.7 228.3 385.3 274 387.5C319.7 389.7 365.3 391.3 411.2 389.2C457 387 503 381 548.8 369C594.7 357 640.3 339 686 336.8C731.7 334.7 777.3 348.3 823 361C868.7 373.7 914.3 385.3 937.2 391.2L960 397L960 541L937.2 541C914.3 541 868.7 541 823 541C777.3 541 731.7 541 686 541C640.3 541 594.7 541 548.8 541C503 541 457 541 411.2 541C365.3 541 319.7 541 274 541C228.3 541 182.7 541 137 541C91.3 541 45.7 541 22.8 541L0 541Z" fill="#f7efcb"></path><path d="M0 422L22.8 423.7C45.7 425.3 91.3 428.7 137 427.8C182.7 427 228.3 422 274 411.3C319.7 400.7 365.3 384.3 411.2 385.5C457 386.7 503 405.3 548.8 403C594.7 400.7 640.3 377.3 686 368C731.7 358.7 777.3 363.3 823 371.3C868.7 379.3 914.3 390.7 937.2 396.3L960 402L960 541L937.2 541C914.3 541 868.7 541 823 541C777.3 541 731.7 541 686 541C640.3 541 594.7 541 548.8 541C503 541 457 541 411.2 541C365.3 541 319.7 541 274 541C228.3 541 182.7 541 137 541C91.3 541 45.7 541 22.8 541L0 541Z" fill="#f7ebb7"></path><path d="M0 407L22.8 411.2C45.7 415.3 91.3 423.7 137 425C182.7 426.3 228.3 420.7 274 414.3C319.7 408 365.3 401 411.2 399.7C457 398.3 503 402.7 548.8 408C594.7 413.3 640.3 419.7 686 424.2C731.7 428.7 777.3 431.3 823 432.2C868.7 433 914.3 432 937.2 431.5L960 431L960 541L937.2 541C914.3 541 868.7 541 823 541C777.3 541 731.7 541 686 541C640.3 541 594.7 541 548.8 541C503 541 457 541 411.2 541C365.3 541 319.7 541 274 541C228.3 541 182.7 541 137 541C91.3 541 45.7 541 22.8 541L0 541Z" fill="#f6e7a2"></path><path d="M0 481L22.8 480.5C45.7 480 91.3 479 137 479C182.7 479 228.3 480 274 475.8C319.7 471.7 365.3 462.3 411.2 458.5C457 454.7 503 456.3 548.8 457.5C594.7 458.7 640.3 459.3 686 461.5C731.7 463.7 777.3 467.3 823 463.5C868.7 459.7 914.3 448.3 937.2 442.7L960 437L960 541L937.2 541C914.3 541 868.7 541 823 541C777.3 541 731.7 541 686 541C640.3 541 594.7 541 548.8 541C503 541 457 541 411.2 541C365.3 541 319.7 541 274 541C228.3 541 182.7 541 137 541C91.3 541 45.7 541 22.8 541L0 541Z" fill="#f6e38d"></path><path d="M0 487L22.8 490.3C45.7 493.7 91.3 500.3 137 505.2C182.7 510 228.3 513 274 513.7C319.7 514.3 365.3 512.7 411.2 509.7C457 506.7 503 502.3 548.8 500C594.7 497.7 640.3 497.3 686 493.3C731.7 489.3 777.3 481.7 823 477.8C868.7 474 914.3 474 937.2 474L960 474L960 541L937.2 541C914.3 541 868.7 541 823 541C777.3 541 731.7 541 686 541C640.3 541 594.7 541 548.8 541C503 541 457 541 411.2 541C365.3 541 319.7 541 274 541C228.3 541 182.7 541 137 541C91.3 541 45.7 541 22.8 541L0 541Z" fill="#f5de78"></path></svg>